# xmcd
#
# Track frame offsets:
#	150
#	22194
#	41236
#	58496
#	75251
#	93720
#	117545
#	133560
#	155132
#	175609
#	189018
#
# Disc length: 2728 seconds
#
# Revision: 0
# Processed by: cddbd v1.4PL0 Copyright (c) Steve Scherf et al.
# Submitted via: dBpowerAMP V4.0
#
DISCID=950aa60b
DTITLE=Annie Wenz - Time is Magic
DYEAR=1900
DGENRE=
TTITLE0=Dance Under The Moon
TTITLE1=Time is Magic
TTITLE2=Richard
TTITLE3=Touch The Ground
TTITLE4=Little White Lies
TTITLE5=Journey To Katahdin
TTITLE6=The Dragon
TTITLE7=Walk Away
TTITLE8=Wild Horses
TTITLE9=Unspoken Words
TTITLE10=When Horizon Calls
EXTD=
EXTT0=
EXTT1=
EXTT2=
EXTT3=
EXTT4=
EXTT5=
EXTT6=
EXTT7=
EXTT8=
EXTT9=
EXTT10=
PLAYORDER=
